<svg width="625" height="488" viewBox="0 0 625 488" fill="none" xmlns="http://www.w3.org/2000/svg">
<g clip-path="url(#clip0_18_618)">
<path d="M614.472 342.6C603.542 366.761 584.618 385.247 562.967 399.314C554.087 405.035 544.853 410.1 535.329 414.474C529.099 417.365 522.783 420.002 516.382 422.387C484.631 434.266 451.035 440.071 417.381 440.09C411.881 440.096 406.381 439.945 400.882 439.636C399.304 439.549 397.726 439.45 396.148 439.338C387.835 438.747 379.548 437.8 371.289 436.497C371.126 436.472 370.958 436.447 370.796 436.416C353.52 433.683 336.487 429.406 319.877 423.63C316.657 422.511 313.457 421.337 310.276 420.106C309.417 419.783 308.558 419.441 307.705 419.105C304.12 417.682 300.562 416.188 297.031 414.623C294.061 413.312 291.108 411.951 288.172 410.54C285.283 409.141 282.413 407.697 279.563 406.207C274.899 403.758 270.284 401.191 265.721 398.506C262.199 396.417 258.724 394.25 255.296 392.004C246.793 386.439 238.565 380.406 230.645 373.928C227.849 371.64 225.092 369.295 222.373 366.892C220.487 365.226 218.619 363.523 216.722 361.869C212.719 358.382 208.6 355.069 204.005 352.589C202.619 351.84 201.198 351.168 199.747 350.575C194.326 348.425 188.614 347.235 182.836 347.05C172.979 346.634 162.804 348.598 153.272 351.507C148.741 352.881 144.262 354.46 139.784 356.076C137.945 356.741 136.108 357.408 134.272 358.077C130.478 359.464 126.684 360.819 122.855 362.056C121.579 362.466 120.303 362.87 119.02 363.249C113.902 364.828 108.685 366.016 103.409 366.805C91.6273 368.41 79.6614 367.293 68.3162 363.529L67.3474 363.205C65.7231 362.658 64.1161 362.062 62.5148 361.409L61.546 361.011C60.003 360.371 58.4888 359.685 57.0035 358.954L56.0347 358.481C54.6075 357.767 53.2093 357.021 51.8346 356.231C51.7185 356.169 51.6083 356.107 51.4921 356.039C50.9584 355.74 50.4307 355.417 49.9084 355.112C41.4853 350.061 33.8255 343.671 27.1902 336.16C26.9988 335.955 26.8189 335.744 26.6101 335.539C25.6875 334.469 24.7824 333.382 23.9066 332.269C23.5816 331.859 23.2567 331.448 22.9378 331.026C21.8993 329.665 20.8957 328.274 19.9269 326.855C19.7818 326.65 19.6425 326.439 19.5034 326.233C15.5416 320.358 12.2555 313.993 9.71633 307.275C9.63503 307.07 9.55969 306.858 9.48999 306.653C8.71837 304.521 8.01255 302.352 7.37254 300.145C7.11137 299.225 6.86209 298.28 6.64142 297.361C6.56606 297.087 6.49638 296.807 6.43264 296.534C3.25944 283.033 2.91699 268.991 2.91699 255.03V250.151C3.0099 227.568 3.33482 204.601 6.44429 182.329C6.45664 182.174 6.47792 182.021 6.50803 181.869C7.55234 174.372 8.96796 166.94 10.7489 159.604C12.6191 151.908 15.0058 144.367 17.8904 137.04C25.0436 119.014 35.4456 102.61 46.996 87.4061C76.0611 49.1721 114.217 17.0297 158.876 5.0392C206.999 -7.90851 260.482 4.49842 299.299 37.6105C310.745 47.3695 321.066 58.8689 333.754 66.6139C334.183 66.8812 334.618 67.1423 335.059 67.3971C336.736 68.373 338.449 69.2598 340.199 70.0575C342.518 71.1189 344.904 72.0017 347.341 72.6993C355.051 74.9183 363.109 75.1172 370.796 72.3636C371.422 72.1336 372.049 71.8912 372.67 71.6239C373.986 71.0645 375.245 70.5423 376.458 70.0575C384.731 66.7569 391.101 65.1532 401.155 65.7312C425.03 67.1725 448.569 72.4507 470.98 81.3891C471.885 81.7434 472.79 82.1101 473.689 82.4769C532.115 106.439 582.35 154.022 608.445 215.168C609.141 216.784 609.812 218.412 610.457 220.053C626.023 258.977 631.639 304.646 614.472 342.6Z" fill="#F2F2F2"/>
<path d="M36.9001 318.638V318.886L36.8145 318.997L36.9001 318.638Z" fill="#CACACA"/>
<path d="M139.784 356.076C137.945 356.741 136.108 357.408 134.272 358.077V356.076H139.784Z" fill="white"/>
<path d="M347.341 36.5294H333.753V72.9264H347.341V36.5294Z" fill="#E4E4E4"/>
<path d="M370.796 70.0575V436.416C353.52 433.683 336.488 429.406 319.877 423.63C316.657 422.511 313.457 421.337 310.276 420.106C309.417 419.783 308.559 419.441 307.706 419.105C304.12 417.682 300.562 416.188 297.031 414.623C294.061 413.312 291.108 411.951 288.172 410.54C285.283 409.141 282.414 407.697 279.563 406.207C274.899 403.758 270.285 401.191 265.721 398.506C262.199 396.417 258.725 394.25 255.296 392.004V70.0575H370.796Z" fill="#E4E4E4"/>
<path d="M417.381 70.0575V440.09C411.881 440.096 406.382 439.945 400.882 439.636C399.304 439.549 397.726 439.45 396.148 439.338C387.835 438.747 379.548 437.8 371.289 436.497C371.126 436.472 370.959 436.448 370.796 436.416V70.0575H417.381Z" fill="#CACACA"/>
<path d="M293.634 106.453H276.164V125.172H293.634V106.453Z" fill="white"/>
<path d="M321.781 106.453H304.311V125.172H321.781V106.453Z" fill="white"/>
<path d="M349.927 106.453H332.457V125.172H349.927V106.453Z" fill="white"/>
<path d="M294.12 149.09H276.649V167.808H294.12V149.09Z" fill="white"/>
<path d="M322.266 149.09H304.796V167.808H322.266V149.09Z" fill="white"/>
<path d="M350.413 149.09H332.942V167.808H350.413V149.09Z" fill="white"/>
<path d="M294.605 191.727H277.135V210.445H294.605V191.727Z" fill="white"/>
<path d="M322.751 191.727H305.281V210.445H322.751V191.727Z" fill="white"/>
<path d="M350.898 191.727H333.428V210.445H350.898V191.727Z" fill="white"/>
<path d="M295.089 234.363H277.619V253.081H295.089V234.363Z" fill="white"/>
<path d="M323.236 234.363H305.766V253.081H323.236V234.363Z" fill="white"/>
<path d="M351.383 234.363H333.913V253.081H351.383V234.363Z" fill="white"/>
<path d="M295.575 277H278.104V295.718H295.575V277Z" fill="white"/>
<path d="M323.721 277H306.251V295.718H323.721V277Z" fill="white"/>
<path d="M351.868 277H334.397V295.718H351.868V277Z" fill="white"/>
<path d="M296.06 319.636H278.59V338.354H296.06V319.636Z" fill="white"/>
<path d="M324.207 319.636H306.736V338.354H324.207V319.636Z" fill="white"/>
<path d="M352.353 319.636H334.883V338.354H352.353V319.636Z" fill="white"/>
<path d="M296.545 362.273H279.075V380.991H296.545V362.273Z" fill="white"/>
<path d="M324.692 362.273H307.222V380.991H324.692V362.273Z" fill="white"/>
<path d="M352.839 362.273H335.368V380.991H352.839V362.273Z" fill="white"/>
<path d="M297.031 404.908V414.623C294.061 413.312 291.108 411.951 288.173 410.54C285.284 409.141 282.414 407.697 279.563 406.207V404.908H297.031Z" fill="white"/>
<path d="M325.179 404.908V423.63H319.876C316.657 422.511 313.456 421.337 310.275 420.106C309.417 419.783 308.558 419.441 307.705 419.105V404.908L325.179 404.908Z" fill="white"/>
<path d="M353.324 404.909H335.854V423.628H353.324V404.909Z" fill="white"/>
<path d="M505.703 221.884H492.115V243.456H505.703V221.884Z" fill="#E4E4E4"/>
<path d="M516.382 241.604V422.387C484.631 434.266 451.035 440.071 417.381 440.09C411.881 440.096 406.382 439.945 400.882 439.636V241.604H516.382Z" fill="#E4E4E4"/>
<path d="M562.967 241.604V399.314C554.087 405.035 544.853 410.1 535.329 414.474C529.098 417.365 522.783 420.002 516.382 422.387V241.604H562.967Z" fill="#CACACA"/>
<path d="M441.161 277H423.69V295.718H441.161V277Z" fill="white"/>
<path d="M469.307 277H451.837V295.718H469.307V277Z" fill="white"/>
<path d="M497.454 277H479.983V295.718H497.454V277Z" fill="white"/>
<path d="M441.646 319.636H424.176V338.354H441.646V319.636Z" fill="white"/>
<path d="M469.793 319.636H452.322V338.354H469.793V319.636Z" fill="white"/>
<path d="M497.939 319.636H480.469V338.354H497.939V319.636Z" fill="white"/>
<path d="M442.131 362.273H424.661V380.991H442.131V362.273Z" fill="white"/>
<path d="M470.278 362.273H452.808V380.991H470.278V362.273Z" fill="white"/>
<path d="M498.424 362.273H480.954V380.991H498.424V362.273Z" fill="white"/>
<path d="M442.617 404.909H425.146V423.628H442.617V404.909Z" fill="white"/>
<path d="M470.763 404.909H453.293V423.628H470.763V404.909Z" fill="white"/>
<path d="M498.91 404.909H481.439V423.628H498.91V404.909Z" fill="white"/>
<path d="M414.554 445.792C414.554 445.792 420.768 469.474 446.797 468.398C472.825 467.321 484.077 445.361 484.077 445.361L414.554 445.792Z" fill="#3F3D56"/>
<path d="M55.8855 353.432L48.4492 368.025L49.6565 395.414L227.851 452.145L305.446 462.37L290.276 363.219L237.192 353.148L157.558 355.585L90.0441 342.237L55.8855 353.432Z" fill="#2F2E41"/>
<path d="M80.6912 449.452H76.0912C71.6443 449.469 67.2858 448.122 63.5309 445.569C59.776 443.016 56.7817 439.365 54.9019 435.047C47.8104 418.46 49.911 395.522 49.9421 395.195C51.5491 375.369 61.6901 362.435 75.1786 363.022C90.0694 363.665 102.767 418.849 103.3 421.198C104.185 425.159 103.952 429.313 102.631 433.132C100.988 437.942 97.9986 442.091 94.0716 445.012C90.1446 447.933 85.4716 449.484 80.6912 449.452Z" fill="#3F3D56"/>
<path d="M268.273 487.343C267.486 487.323 266.701 487.242 265.925 487.1C259.973 486.096 254.347 483.522 249.553 479.612C244.758 475.701 240.945 470.576 238.457 464.696C236.592 460.35 234.798 455.901 233.124 451.47C226.403 433.68 232.037 402.58 241.192 390.542C249.272 379.917 257.404 380.001 269.715 380.125C270.979 380.139 272.288 380.152 273.647 380.154C287.316 380.178 301.766 434.052 306.515 451.756C306.893 453.164 307.205 454.33 307.447 455.204C308.191 457.894 308.102 461.112 307.184 464.767C304.287 476.298 294.738 484.85 283.423 486.048C275.296 486.907 270.199 487.343 268.273 487.343Z" fill="#3F3D56"/>
<path d="M49.6561 395.414C49.6561 395.414 44.4318 370.44 52.2682 353.432L60.1664 332.98L90.0123 362.69L96.8275 409.179L213.619 428.138C213.619 428.138 206.385 351.925 251.796 348.911C297.207 345.897 318.755 428.138 318.755 428.138L341.413 445.792L499.347 433.305C499.347 433.305 502.135 441.486 498.129 445.792C494.123 450.098 302.432 463.446 302.432 463.446C302.432 463.446 292.787 361.398 254.609 370.871C216.432 380.344 227.85 452.145 227.85 452.145L91.4504 426.416C91.4504 426.416 87.0299 357.092 64.5252 357.092C42.0206 357.092 49.6561 395.414 49.6561 395.414Z" fill="#3F3D56"/>
<path d="M76.57 308.593L102.301 265.378L212.011 258.489L333.778 260.212L390.441 316.618L215.226 327.382L74.1699 319.201L76.57 308.593Z" fill="#3F3D56"/>
<path d="M76.5705 308.593C76.5705 308.593 54.6798 309.083 52.2686 353.432C52.2686 353.432 75.5769 308.221 95.6704 408.977L215.628 429.861C215.628 429.861 211.208 345.897 256.619 352.356C302.03 358.815 312.88 435.889 312.88 435.889C312.88 435.889 321.722 454.834 370.348 451.82C418.974 448.806 491.712 444.07 499.348 433.305C499.348 433.305 517.03 369.149 461.974 327.813L390.441 316.618L228.488 320.062L76.5705 308.593Z" fill="#090909"/>
<path d="M131.437 338.793H117.773C117.403 338.794 117.036 338.717 116.693 338.567C116.351 338.416 116.039 338.194 115.777 337.914C115.515 337.634 115.306 337.301 115.164 336.935C115.022 336.568 114.949 336.175 114.949 335.779C114.949 335.382 115.022 334.989 115.164 334.623C115.306 334.256 115.515 333.923 115.777 333.643C116.039 333.363 116.351 333.141 116.693 332.991C117.036 332.84 117.403 332.763 117.773 332.765H131.437C132.181 332.768 132.894 333.086 133.419 333.651C133.944 334.216 134.239 334.981 134.239 335.779C134.239 336.576 133.944 337.341 133.419 337.906C132.894 338.471 132.181 338.79 131.437 338.793Z" fill="#CACACA"/>
<path d="M339.404 432.444C344.286 432.444 348.245 428.203 348.245 422.971C348.245 417.74 344.286 413.498 339.404 413.498C334.521 413.498 330.562 417.74 330.562 422.971C330.562 428.203 334.521 432.444 339.404 432.444Z" fill="white"/>
<path d="M335.024 376.49C328.971 376.49 321.744 373.721 315.276 368.383C303.862 358.962 299.067 345.052 304.587 337.375C310.106 329.697 323.883 331.117 335.296 340.537C340.812 345.09 344.965 350.812 346.99 356.649C349.027 362.521 348.671 367.811 345.986 371.545C343.594 374.871 339.652 376.49 335.024 376.49Z" fill="white"/>
<path d="M492.133 364.462C487.68 364.462 479.681 359.631 471.761 351.791C467.014 347.091 463.081 342.053 460.687 337.606C458.256 333.088 457.702 329.69 459.128 328.036C460.554 326.383 463.759 326.706 468.155 328.947C472.482 331.153 477.479 334.955 482.226 339.655C492.244 349.573 497.794 360.008 494.86 363.41C494.5 363.78 494.071 364.066 493.601 364.247C493.131 364.428 492.631 364.502 492.133 364.462Z" fill="white"/>
<path d="M118.653 308.585C118.558 308.585 118.462 308.58 118.365 308.57L89.3062 305.675C88.776 305.623 88.2671 305.425 87.8279 305.103C87.3887 304.78 87.0338 304.343 86.7967 303.832C86.5596 303.321 86.4482 302.753 86.4732 302.184C86.4981 301.614 86.6585 301.06 86.9392 300.575L103.326 272.269C103.594 271.805 103.963 271.419 104.402 271.144C104.841 270.868 105.336 270.712 105.844 270.688L127.518 269.664C128.016 269.64 128.512 269.745 128.965 269.969C129.418 270.192 129.814 270.529 130.121 270.951C130.428 271.372 130.636 271.866 130.728 272.392C130.82 272.917 130.793 273.458 130.65 273.97L121.649 306.195C121.455 306.885 121.058 307.49 120.519 307.92C119.98 308.35 119.326 308.583 118.653 308.585Z" fill="white"/>
<path d="M195.228 315.217C194.942 315.217 194.653 315.202 194.362 315.171L144.125 309.873C142.856 309.739 141.628 309.31 140.529 308.615C139.43 307.921 138.486 306.978 137.762 305.852C137.038 304.727 136.552 303.445 136.338 302.098C136.124 300.75 136.187 299.369 136.523 298.05L143.75 269.637C144.236 267.698 145.292 265.979 146.76 264.733C148.229 263.486 150.033 262.779 151.906 262.716L192.449 261.199C194.649 261.129 196.794 261.942 198.462 263.48C200.131 265.017 201.203 267.168 201.467 269.509L204.813 300.431C204.925 301.463 204.876 302.507 204.669 303.521L203.789 307.827C203.362 309.92 202.28 311.793 200.723 313.137C199.166 314.481 197.227 315.214 195.228 315.217Z" fill="white"/>
<path d="M234.435 316.712C232.965 316.707 231.539 316.171 230.388 315.191C229.237 314.21 228.429 312.843 228.093 311.309L219.23 270.265C219.009 269.243 219.007 268.18 219.223 267.156C219.438 266.133 219.867 265.174 220.477 264.353C221.086 263.531 221.861 262.868 222.743 262.412C223.626 261.955 224.592 261.719 225.572 261.719H330.666C331.537 261.721 332.4 261.909 333.202 262.273C334.004 262.637 334.731 263.169 335.339 263.837L369.666 301.758C370.547 302.732 371.145 303.961 371.385 305.293C371.625 306.626 371.496 308.004 371.016 309.26C370.535 310.516 369.723 311.594 368.679 312.362C367.635 313.131 366.405 313.557 365.138 313.587L234.58 316.71C234.532 316.712 234.483 316.712 234.435 316.712Z" fill="white"/>
<path d="M101.404 266.885L102.301 265.379C102.301 265.379 107.526 249.878 179.46 247.294C251.395 244.711 318.507 246.002 333.778 260.212L209.6 259.781L104.713 267.531L101.404 266.885Z" fill="#090909"/>
<path d="M67.3383 377.33C59.7921 377.33 53.6748 390.824 53.6748 407.47C53.6748 424.117 59.7921 437.611 67.3383 437.611C74.8846 437.611 81.0019 424.117 81.0019 407.47C81.0019 390.824 74.8846 377.33 67.3383 377.33ZM67.9411 383.788C69.6057 383.788 70.9552 387.258 70.9552 391.539C70.9552 395.819 69.6057 399.289 67.9411 399.289C66.2766 399.289 64.9271 395.819 64.9271 391.539C64.9271 387.258 66.2766 383.788 67.9411 383.788ZM69.7496 407.47C69.7496 408.897 68.8499 410.054 67.7402 410.054C66.6306 410.054 65.7309 408.897 65.7309 407.47C65.7309 406.044 66.6306 404.887 67.7402 404.887C68.8499 404.887 69.7496 406.044 69.7496 407.47V407.47ZM59.2508 409.128C56.6667 409.342 54.5047 408.581 54.4215 407.427C54.3383 406.273 56.3655 405.165 58.9496 404.951C61.5334 404.737 63.6955 405.499 63.7786 406.653C63.8618 407.806 61.8346 408.915 59.2507 409.129L59.2508 409.128ZM67.9412 431.152C66.2766 431.152 64.9272 427.682 64.9272 423.402C64.9272 419.121 66.2766 415.651 67.9412 415.651C69.6058 415.651 70.9552 419.121 70.9552 423.402C70.9552 427.682 69.6057 431.152 67.9411 431.152H67.9412ZM75.7274 409.128C73.1433 409.342 70.9813 408.581 70.8981 407.427C70.8149 406.273 72.8421 405.165 75.4262 404.951C78.0101 404.737 80.1721 405.499 80.2553 406.653C80.3385 407.806 78.3113 408.915 75.7274 409.129L75.7274 409.128Z" fill="#E4E4E4"/>
<path d="M258.226 397.567C246.241 397.567 236.525 414.821 236.525 436.104C236.525 457.388 246.241 474.641 258.226 474.641C270.211 474.641 279.927 457.388 279.927 436.104C279.927 414.821 270.211 397.567 258.226 397.567ZM245.262 438.996C241.762 439.286 238.833 438.254 238.72 436.691C238.608 435.129 241.354 433.627 244.854 433.337C248.354 433.048 251.283 434.08 251.395 435.642C251.508 437.205 248.762 438.706 245.262 438.996ZM258.239 468.398C255.984 468.398 254.156 463.697 254.156 457.899C254.156 452.101 255.984 447.401 258.239 447.401C260.494 447.401 262.322 452.101 262.322 457.899C262.322 463.697 260.494 468.398 258.239 468.398ZM255.011 436.319C255.011 434.036 256.451 432.186 258.226 432.186C260.002 432.186 261.441 434.036 261.441 436.319C261.441 438.602 260.002 440.453 258.226 440.453C256.451 440.453 255.011 438.602 255.011 436.319ZM258.239 425.238C255.984 425.238 254.156 420.538 254.156 414.739C254.156 408.941 255.984 404.241 258.239 404.241C260.494 404.241 262.322 408.941 262.322 414.739C262.322 420.538 260.494 425.238 258.239 425.238ZM272.001 438.135C268.501 438.425 265.572 437.393 265.459 435.83C265.347 434.268 268.093 432.766 271.593 432.476C275.093 432.187 278.021 433.218 278.134 434.781C278.247 436.344 275.501 437.845 272.001 438.135Z" fill="#E4E4E4"/>
<path d="M182.273 320.493L187.096 332.549C187.096 332.549 195.133 335.994 200.358 324.368L189.771 313.026L182.273 320.493Z" fill="#CACACA"/>
<path d="M175.643 323.292C167.001 323.292 159.97 318.27 159.97 312.097C159.97 305.924 167.001 300.901 175.643 300.901C184.285 300.901 191.315 305.924 191.315 312.097C191.315 318.27 184.285 323.292 175.643 323.292Z" fill="#CACACA"/>
<path d="M477.849 362.69L387.999 365.504C387.999 365.504 368.336 371.414 366.329 388.299C366.329 388.299 369.138 402.088 376.361 402.088C383.585 402.088 494.342 395.897 494.342 395.897C494.342 395.897 501.565 384.077 495.546 375.635C489.526 367.193 477.849 362.69 477.849 362.69Z" fill="#3F3D56"/>
<path d="M485.628 368.07L380.26 371.802L380.3 373.093L485.668 369.361L485.628 368.07Z" fill="#E4E4E4"/>
<path d="M489.461 372.163L374.862 377.726L374.917 379.016L489.515 373.453L489.461 372.163Z" fill="#E4E4E4"/>
<path d="M493.472 377.721L370.577 384.792L370.642 386.082L493.537 379.011L493.472 377.721Z" fill="#E4E4E4"/>
<path d="M66.6996 349.105C66.2087 348.429 65.8621 347.647 65.6842 346.812C65.5062 345.977 65.5012 345.111 65.6695 344.274C65.8378 343.437 66.1754 342.65 66.6583 341.968C67.1413 341.286 67.758 340.725 68.465 340.326L67.3234 326.999L74.7132 324.28L76.0788 343.126C76.6261 344.443 76.7034 345.93 76.296 347.304C75.8886 348.678 75.0248 349.844 73.8683 350.581C72.7119 351.318 71.3432 351.575 70.0217 351.303C68.7001 351.031 67.5177 350.249 66.6985 349.106L66.6996 349.105Z" fill="#FFB8B8"/>
<path d="M74.6329 272.612C74.6329 272.612 79.704 261.208 84.2104 265.217C88.7168 269.225 78.0323 302.945 78.0323 302.945L76.4076 335.679L67.8435 334.762L65.4219 302.873L74.6329 272.612Z" fill="#E6E6E6"/>
<path d="M6.61035 441.316L12.9676 446.83L35.8424 423.178L26.4599 415.043L6.61035 441.316Z" fill="#FFB8B8"/>
<path d="M6.66836 437.686L19.1884 448.543C21.3042 450.378 22.653 453.039 22.9379 455.94C23.2229 458.841 22.4207 461.744 20.7078 464.012L20.4981 464.289L0 446.512L6.66836 437.686Z" fill="#2F2E41"/>
<path d="M94.9636 456.622H103.143L107.032 422.817H94.9619L94.9636 456.622Z" fill="#FFB8B8"/>
<path d="M92.877 453.761H108.985C111.708 453.761 114.319 454.92 116.244 456.982C118.169 459.045 119.25 461.842 119.251 464.759V465.117H92.8775L92.877 453.761Z" fill="#2F2E41"/>
<path d="M109.316 298.152C109.316 298.152 124.661 318.165 121.325 338.182C117.989 358.2 115.32 373.21 115.32 373.21L109.986 418.243C109.986 418.243 111.987 430.509 109.319 433.668C109.319 433.668 113.322 441.118 105.983 443.977C98.644 446.836 94.6814 442.991 94.6814 442.991C94.6814 442.991 89.3009 434.686 92.6367 432.544L94.0422 344.159L40.5984 418.958C40.5984 418.958 39.6162 428.055 32.7682 428.153L24.5864 434.684L15.2461 428.964L19.9162 422.531C19.9162 422.531 17.2476 415.383 23.252 413.953L57.9447 365.345L66.6178 340.326C66.6178 340.326 71.2879 321.026 83.9641 313.163V304.797L109.316 298.152Z" fill="#2F2E41"/>
<path d="M82.9629 263.482C84.983 260.925 87.8106 259.252 90.9071 258.784C94.0037 258.315 97.1529 259.084 99.7549 260.942L100.309 261.339C106.231 268.524 110.211 277.304 111.821 286.734L114.319 301.369L82.9624 308.647L75.6115 281.483C74.6785 278.035 74.9031 274.346 76.2461 271.057C77.5892 267.769 79.9657 265.089 82.9624 263.483L82.9629 263.482Z" fill="#E6E6E6"/>
<path d="M134.479 352.217C133.61 351.912 132.814 351.407 132.146 350.737C131.479 350.067 130.957 349.249 130.616 348.339C130.276 347.429 130.126 346.451 130.177 345.473C130.228 344.494 130.478 343.54 130.911 342.676L121.865 330.815L127.252 323.167L139.806 340.11C141.112 340.985 142.072 342.342 142.506 343.925C142.94 345.508 142.817 347.206 142.161 348.698C141.504 350.19 140.36 351.372 138.944 352.021C137.528 352.669 135.94 352.739 134.479 352.217H134.479Z" fill="#FFB8B8"/>
<path d="M96.3059 274.205C96.3059 274.205 94.3044 259.908 100.976 260.623C107.648 261.338 117.655 300.654 117.655 300.654L135.669 332.821L126.995 337.825L105.646 309.232L96.3059 274.205Z" fill="#E6E6E6"/>
<path d="M108.524 253.304H76.754C76.1005 253.303 75.4739 253.025 75.0118 252.53C74.5497 252.035 74.2898 251.363 74.2891 250.663V235.991C74.2891 230.776 76.2223 225.776 79.6636 222.089C83.1048 218.401 87.7722 216.33 92.6388 216.33C97.5055 216.33 102.173 218.401 105.614 222.089C109.055 225.776 110.989 230.776 110.989 235.991V250.663C110.988 251.363 110.728 252.035 110.266 252.53C109.804 253.025 109.177 253.303 108.524 253.304Z" fill="#2F2E41"/>
<path d="M96.4095 252.962C103.84 252.962 109.863 246.509 109.863 238.548C109.863 230.587 103.84 224.133 96.4095 224.133C88.9794 224.133 82.9561 230.587 82.9561 238.548C82.9561 246.509 88.9794 252.962 96.4095 252.962Z" fill="#FFB8B8"/>
<path d="M115.329 237.458H98.3979L98.2243 234.47L97.3561 237.458H94.7494L94.4054 231.535L92.6849 237.458H87.6406V237.165C87.6406 228.589 93.3159 221.612 100.294 221.612H102.681C109.657 221.612 115.334 228.589 115.334 237.165L115.329 237.458Z" fill="#2F2E41"/>
<path d="M99.0994 256.043C98.8925 256.043 98.686 256.026 98.4815 255.992L78.3291 252.666V230.176C78.3291 227.879 79.1809 225.676 80.6971 224.051C82.2133 222.427 84.2697 221.514 86.4139 221.514H100.513L99.9654 222.113C92.3242 230.447 98.0811 243.965 102.193 251.282C102.494 251.807 102.631 252.423 102.581 253.038C102.532 253.653 102.3 254.235 101.919 254.698C101.569 255.129 101.135 255.472 100.649 255.705C100.162 255.938 99.6334 256.054 99.1005 256.045L99.0994 256.043Z" fill="#2F2E41"/>
</g>
<defs>
<clipPath id="clip0_18_618">
<rect width="625" height="487.343" fill="white"/>
</clipPath>
</defs>
</svg>
