<svg width="885" height="579" viewBox="0 0 885 579" fill="none" xmlns="http://www.w3.org/2000/svg">
<g clip-path="url(#clip0_504_83)">
<path d="M677.577 572.452C666.246 561.976 659.364 545.425 661.169 529.313C662.974 513.201 674.153 498.39 688.653 494.968C703.154 491.547 719.683 501.018 724.088 516.518C726.511 486.634 729.304 455.497 743.824 430.048C756.971 407.004 779.741 390.515 804.42 387.566C829.098 384.616 855.081 395.757 870.472 417.072C885.863 438.387 889.631 469.374 878.852 493.846C870.911 511.873 856.281 525.289 840.953 536.204C791.421 571.176 732.015 585.398 673.664 576.252L677.577 572.452Z" fill="#F2F2F2"/>
<path d="M846.068 396.374C825.705 414.524 807.025 434.823 790.296 456.978C764.117 491.531 742.932 530.271 727.48 571.85C726.348 574.883 730.849 576.203 731.968 573.204C757.25 505.631 797.611 446.072 849.359 399.976C851.683 397.905 848.373 394.321 846.068 396.374Z" fill="white"/>
<path d="M284.896 569.606C300.458 555.216 309.911 532.484 307.432 510.354C304.953 488.224 289.599 467.88 269.682 463.181C249.766 458.482 227.063 471.49 221.013 492.78C217.684 451.734 213.848 408.968 193.905 374.013C175.848 342.362 144.573 319.715 110.677 315.664C76.7815 311.612 41.0937 326.914 19.9543 356.191C-1.18518 385.467 -6.36109 428.028 8.44443 461.64C19.3511 486.4 39.4451 504.827 60.4987 519.818C127.667 567.646 210.988 587.593 290.27 574.825" fill="#F2F2F2"/>
<path d="M53.4732 327.763C81.4413 352.691 107.099 380.572 130.075 411.001C153.055 441.399 173.287 474.165 190.485 508.838C200.099 528.288 208.734 548.298 216.354 568.778C217.908 572.944 211.726 574.757 210.189 570.638C196.693 534.531 179.995 499.959 160.335 467.417C140.771 434.993 118.379 404.722 93.4734 377.03C79.3867 361.375 64.524 346.579 48.9526 332.71C45.7609 329.865 50.3079 324.942 53.4732 327.763L53.4732 327.763Z" fill="white"/>
<path d="M635.267 577.733H263.974V160.852C263.974 72.1579 329.914 -3.8147e-06 410.965 -3.8147e-06H488.276C569.327 -3.8147e-06 635.267 72.1579 635.267 160.852V577.733Z" fill="#F2F2F2"/>
<path d="M557.957 577.733H263.974V160.852C263.893 126.867 273.727 93.7399 292.046 66.2953C292.721 65.2881 293.394 64.294 294.089 63.3107C302.949 50.594 313.494 39.3946 325.373 30.0821C326.044 29.5478 326.718 29.0227 327.402 28.4977C337.343 20.9698 348.096 14.8159 359.417 10.1761C360.089 9.89727 360.773 9.61788 361.458 9.34991C371.697 5.35151 382.31 2.61262 393.103 1.18382C393.772 1.0838 394.459 1.00554 395.146 0.927269C405.663 -0.303301 416.27 -0.303301 426.787 0.927269C427.472 1.00554 428.159 1.08379 428.836 1.18489C439.626 2.61378 450.237 5.35234 460.473 9.34996C461.158 9.61793 461.842 9.8973 462.516 10.1767C473.698 14.758 484.324 20.82 494.159 28.2276C494.842 28.7412 495.526 29.2663 496.2 29.7913C502.859 34.9929 509.114 40.7877 514.9 47.1166C519.541 52.1931 523.865 57.6044 527.844 63.314C528.537 64.294 529.21 65.2882 529.884 66.2937C548.203 93.7386 558.038 126.866 557.957 160.852V577.733Z" fill="#CCCCCC"/>
<path d="M534.052 391.277C543.041 391.277 550.328 383.303 550.328 373.467C550.328 363.63 543.041 355.656 534.052 355.656C525.063 355.656 517.776 363.63 517.776 373.467C517.776 383.303 525.063 391.277 534.052 391.277Z" fill="black"/>
<path d="M604.851 565.246H592.379L586.446 512.607L604.853 512.608L604.851 565.246Z" fill="#FFB8B8"/>
<path d="M583.471 561.347H607.523V577.918H568.328C568.328 575.742 568.719 573.587 569.48 571.576C570.241 569.566 571.357 567.739 572.763 566.2C574.169 564.661 575.839 563.441 577.676 562.608C579.513 561.775 581.483 561.347 583.471 561.347Z" fill="#2F2E41"/>
<path d="M666.902 565.246H654.431L648.498 512.607L666.905 512.608L666.902 565.246Z" fill="#FFB8B8"/>
<path d="M645.523 561.347H669.574V577.918H630.379C630.379 575.742 630.771 573.587 631.532 571.576C632.293 569.566 633.409 567.739 634.815 566.2C636.221 564.661 637.89 563.441 639.728 562.608C641.565 561.775 643.534 561.347 645.523 561.347Z" fill="#2F2E41"/>
<path d="M542.289 376.995C541.392 375.549 540.795 373.904 540.542 372.178C540.288 370.452 540.383 368.686 540.82 367.005C541.258 365.324 542.027 363.768 543.073 362.447C544.12 361.126 545.418 360.072 546.877 359.359L589.271 231.494L610.132 243.951L561.727 366.144C562.658 368.906 562.632 371.945 561.652 374.686C560.673 377.427 558.808 379.68 556.412 381.018C554.016 382.355 551.255 382.684 548.652 381.943C546.049 381.202 543.785 379.441 542.289 376.995Z" fill="#FFB8B8"/>
<path d="M660.532 401.022C659.146 400.152 657.951 398.961 657.031 397.531C656.112 396.101 655.49 394.469 655.209 392.748C654.929 391.027 654.996 389.259 655.407 387.57C655.819 385.88 656.563 384.31 657.589 382.97L644.456 247.71L668.196 248.897L673.654 381.943C675.597 383.978 676.791 386.722 677.009 389.656C677.227 392.589 676.454 395.509 674.837 397.86C673.219 400.212 670.87 401.833 668.233 402.415C665.597 402.998 662.857 402.502 660.532 401.022Z" fill="#FFB8B8"/>
<path d="M622.659 207.81C636.458 207.81 647.644 195.569 647.644 180.469C647.644 165.369 636.458 153.129 622.659 153.129C608.861 153.129 597.675 165.369 597.675 180.469C597.675 195.569 608.861 207.81 622.659 207.81Z" fill="#FFB8B8"/>
<path d="M660.372 370.259H585.049L585.139 369.618C585.275 368.659 598.564 273.397 588.763 242.232C587.779 239.169 587.866 235.817 589.005 232.82C590.145 229.823 592.258 227.393 594.937 225.998H594.937C608.946 218.779 635.838 209.889 658.535 231.463C661.875 234.69 664.483 238.723 666.153 243.243C667.823 247.763 668.509 252.646 668.157 257.506L660.372 370.259Z" fill="black"/>
<path d="M599.516 287.475L565.604 279.947L581.5 238.727C582.451 234.734 584.811 231.318 588.061 229.226C591.311 227.135 595.187 226.54 598.837 227.571C602.488 228.602 605.616 231.176 607.535 234.728C609.454 238.279 610.007 242.519 609.073 246.516L599.516 287.475Z" fill="black"/>
<path d="M642.948 301.454L640.909 250.314C639.363 240.7 644.392 231.612 652.127 230.127C659.863 228.647 667.418 235.314 668.97 244.998L676.633 292.784L642.948 301.454Z" fill="black"/>
<path d="M657.866 364.137C669.986 414.649 671.309 478.87 668.039 548.922L651.763 546.696L622.263 413.116L605.987 548.922L587.677 547.809C582.207 474.307 576.881 411.207 585.642 369.703L657.866 364.137Z" fill="#2F2E41"/>
<path d="M639.122 201.599C634.461 207.032 625.805 204.115 625.197 196.693C625.15 196.116 625.153 195.537 625.208 194.961C625.521 191.673 627.257 188.688 626.841 185.217C626.747 184.353 626.453 183.529 625.987 182.825C622.273 177.382 613.554 185.259 610.048 180.332C607.899 177.311 610.426 172.554 608.776 169.177C606.599 164.721 600.151 166.919 596.108 164.479C591.609 161.763 591.878 154.209 594.839 149.615C598.451 144.012 604.784 141.022 611.037 140.591C617.291 140.16 623.501 142.01 629.34 144.5C635.973 147.329 642.551 151.238 646.633 157.621C651.598 165.383 652.075 175.819 649.593 184.896C648.082 190.417 642.928 197.162 639.122 201.599Z" fill="#2F2E41"/>
<path d="M854.464 578.449H103.441C103.12 578.448 102.813 578.308 102.586 578.059C102.36 577.811 102.233 577.474 102.233 577.123C102.233 576.773 102.36 576.436 102.586 576.188C102.813 575.939 103.12 575.799 103.441 575.798H854.464C854.784 575.799 855.092 575.939 855.318 576.188C855.544 576.436 855.672 576.773 855.672 577.123C855.672 577.474 855.544 577.811 855.318 578.059C855.092 578.308 854.784 578.448 854.464 578.449Z" fill="#3F3D56"/>
<path d="M477.086 456.954H344.845C343.103 456.964 341.429 456.218 340.19 454.88C338.95 453.541 338.246 451.719 338.233 449.813V126.806C338.246 124.901 338.95 123.079 340.19 121.74C341.429 120.401 343.103 119.655 344.845 119.665H477.086C478.828 119.655 480.502 120.401 481.742 121.74C482.981 123.079 483.685 124.901 483.698 126.806V449.813C483.685 451.719 482.981 453.541 481.742 454.88C480.502 456.218 478.828 456.964 477.086 456.954Z" fill="white"/>
<path d="M483.698 224.18H338.233V226.406H483.698V224.18Z" fill="#CCCCCC"/>
<path d="M540.466 394H395V396.226H540.466V394Z" fill="#CCCCCC"/>
<path d="M386.043 119.665H384.009V458.067H386.043V119.665Z" fill="#CCCCCC"/>
<path d="M436.905 119.665H434.871V458.067H436.905V119.665Z" fill="#CCCCCC"/>
</g>
<defs>
<clipPath id="clip0_504_83">
<rect width="885" height="579" fill="white"/>
</clipPath>
</defs>
</svg>
